# xmcd CD database file
#
# Track frame offsets:
#	150
#	9784
#	19985
#	32467
#	42147
#	53192
#	65382
#	74917
#	86542
#	97390
#	109307
#	122390
#	133730
#	147862
#	158710
#	169247
#	178630
#	197230
#	211667
#	223710
#	235747
#	251297
#	267455
#	283257
#	299832
#	311357
#
# Disc length: 4360 seconds
#
# Revision: 4
# Processed by: cddbd v1.5.1PL0 Copyright (c) Steve Scherf et al.
# Submitted via: CDex 1.51
#
DISCID=8811061a
DTITLE=麗莎 - 成名經典
DYEAR=1979
DGENRE=New Age
TTITLE0=心底的情人
TTITLE1=盟誓百花洲
TTITLE2=雨夜花
TTITLE3=秋瑾
TTITLE4=谷中情
TTITLE5=花月良宵
TTITLE6=迴想曲
TTITLE7=難忘一段情
TTITLE8=新嫁娘
TTITLE9=美酒添溫暖
TTITLE10=舊夢最難忘
TTITLE11=愛詩
TTITLE12=思鄉曲
TTITLE13=月高照
TTITLE14=懷念知心友
TTITLE15=秋海棠
TTITLE16=少女情懷
TTITLE17=花開等郎來
TTITLE18=雨點像情淚
TTITLE19=親情
TTITLE20=用愛將心偷
TTITLE21=天邊一隻雁
TTITLE22=一片痴心付東流
TTITLE23=喝采
TTITLE24=今晚夜
TTITLE25=在水中央
EXTD=YEAR: 1979
EXTT0=
EXTT1=
EXTT2=
EXTT3=
EXTT4=
EXTT5=
EXTT6=
EXTT7=
EXTT8=
EXTT9=
EXTT10=
EXTT11=
EXTT12=
EXTT13=
EXTT14=
EXTT15=
EXTT16=
EXTT17=
EXTT18=
EXTT19=
EXTT20=
EXTT21=
EXTT22=
EXTT23=
EXTT24=
EXTT25=
PLAYORDER=
